<?xml version="1.0" encoding="utf-8"?>
<!-- Generator: Adobe Illustrator 25.4.1, SVG Export Plug-In . SVG Version: 6.00 Build 0)  -->
<svg version="1.1" id="Layer_1" xmlns="http://www.w3.org/2000/svg" xmlns:xlink="http://www.w3.org/1999/xlink" x="0px" y="0px"
	 viewBox="0 0 13.6 21.7" style="enable-background:new 0 0 13.6 21.7;" xml:space="preserve">
<style type="text/css">
	.st0{fill:none;stroke:#FFFFFF;stroke-width:0.5;stroke-miterlimit:10;}
</style>
<path class="st0" d="M4.8,19.1h4.1l0,0v1.7c0,0.3-0.3,0.6-0.6,0.6l0,0H5.4c-0.3,0-0.6-0.3-0.6-0.6l0,0V19.1L4.8,19.1z"/>
<path class="st0" d="M9.9,16.7c0-0.3,0.1-0.7,0.2-1c0.1-0.3,0.2-0.7,0.3-1c0.2-0.7,0.4-1.3,0.7-1.9c0.2-0.3,0.3-0.6,0.6-0.9
	c0.3-0.4,0.6-0.9,0.8-1.4c0.7-1.3,0.9-2.8,0.7-4.3C12.4,1.5,7.6-1,3.7,1.3C1.1,3-0.1,6.1,0.7,9.1C1,10.1,1.4,10.9,2,11.7
	c0.8,1.1,1.3,2.3,1.6,3.5c0.1,0.5,0.1,1,0.2,1.5C3.8,16.7,9.9,16.7,9.9,16.7z"/>
<path class="st0" d="M3.8,16.8h6.1l0,0v1.7c0,0.3-0.3,0.6-0.6,0.6l0,0h-5c-0.3,0-0.6-0.3-0.6-0.6l0,0L3.8,16.8L3.8,16.8z"/>
<circle class="st0" cx="6.8" cy="7.6" r="2.3"/>
<path class="st0" d="M10,8.6C9.9,8.8,9.9,9,9.8,9.1l0.5,0.5L8.9,11l-0.5-0.5c-0.2,0.1-0.4,0.2-0.6,0.2v0.7h-2v-0.7
	c-0.2-0.1-0.4-0.1-0.6-0.2L4.8,11L3.4,9.6l0.5-0.5C3.8,9,3.7,8.8,3.7,8.6H3v-2h0.7C3.8,6.4,3.8,6.2,3.9,6L3.4,5.6l1.4-1.4l0.5,0.5
	c0.2-0.1,0.4-0.2,0.6-0.2V3.7h2v0.7c0.2,0.1,0.4,0.1,0.6,0.2l0.5-0.5l1.4,1.4L9.8,6.1C9.9,6.2,10,6.4,10,6.6h0.7v2L10,8.6z"/>
</svg>
