<?xml version="1.0" encoding="utf-8"?>
<!-- Generator: Adobe Illustrator 25.4.1, SVG Export Plug-In . SVG Version: 6.00 Build 0)  -->
<svg version="1.1" id="Layer_1" xmlns="http://www.w3.org/2000/svg" xmlns:xlink="http://www.w3.org/1999/xlink" x="0px" y="0px"
	 viewBox="0 0 20.2 21.4" style="enable-background:new 0 0 20.2 21.4;" xml:space="preserve">
<style type="text/css">
	.st0{fill:none;stroke:#FFFFFF;stroke-width:0.5;stroke-miterlimit:10;}
	.st1{fill:#0C0C0C;stroke:#FFFFFF;stroke-width:0.5;stroke-miterlimit:10;}
</style>
<circle class="st0" cx="12.8" cy="6.1" r="2.7"/>
<path class="st0" d="M17.4,7.5c-0.1,0.3-0.2,0.5-0.3,0.8L17.8,9l-2.1,2.1L15,10.4c-0.3,0.1-0.5,0.3-0.8,0.3v1h-2.9v-1
	c-0.3-0.1-0.6-0.2-0.8-0.3l-0.7,0.7L7.7,9l0.7-0.7C8.3,8,8.2,7.7,8.1,7.5h-1V4.6h1C8.2,4.3,8.3,4,8.4,3.8L7.7,3.1L9.8,1l0.7,0.7
	c0.3-0.1,0.5-0.2,0.8-0.3v-1h2.9v1c0.3,0.1,0.5,0.2,0.8,0.3L15.8,1l2.1,2.1l-0.7,0.7c0.1,0.3,0.3,0.5,0.3,0.8h1v2.9H17.4z"/>
<path class="st1" d="M11,15l7-2.4c0.7-0.2,1.4,0,1.7,0.6l0,0c0.4,0.7,0.2,1.6-0.5,2l-9.3,5.4c-1,0.6-2.1,0.7-3.2,0.3l-6.6-2.1"/>
<path class="st1" d="M0.1,10.6h1.7c0.7,0,1.3,0.3,1.8,0.7l0.9,0.9c0.5,0.5,1.1,0.7,1.8,0.7h3.4c0.8,0,1.4,0.6,1.4,1.4l0,0
	c0,0.8-0.6,1.4-1.4,1.4c0,0,0,0,0,0h-4"/>
</svg>
