<?xml version="1.0" encoding="utf-8"?>
<!-- Generator: Adobe Illustrator 25.4.1, SVG Export Plug-In . SVG Version: 6.00 Build 0)  -->
<svg version="1.1" id="Layer_1" xmlns="http://www.w3.org/2000/svg" xmlns:xlink="http://www.w3.org/1999/xlink" x="0px" y="0px"
	 viewBox="0 0 19.8 19.8" style="enable-background:new 0 0 19.8 19.8;" xml:space="preserve">
<style type="text/css">
	.st0{fill:none;stroke:#FFFFFF;stroke-width:0.5;stroke-miterlimit:10;}
	.st1{enable-background:new    ;}
	.st2{fill:#FFFFFF;}
</style>
<g>
	<circle class="st0" cx="9.9" cy="9.9" r="9.6"/>
	<g class="st1">
		<g>
			<path class="st2" d="M10.3,9.6l-0.2,0V5.3l0.3,0c0.8,0.1,1.5,0.4,2.2,1L13,5.8c-0.8-0.6-1.6-0.9-2.6-1l-0.2,0V3.9H9.7v0.9l-0.2,0
				C7.7,4.9,6.5,5.9,6.5,7.3c0,1.4,0.9,2.2,3,2.7l0.2,0v4.3l-0.3,0c-1-0.1-1.9-0.5-2.9-1.3l-0.4,0.5c1,0.8,2.1,1.2,3.3,1.4l0.2,0
				v1.5h0.5v-1.5l0.2,0c1.8-0.1,3-1.1,3-2.6C13.4,10.9,12.5,10.1,10.3,9.6z M9.8,9.4L9.5,9.4c-1.6-0.4-2.3-1-2.3-2.1
				c0-1.1,0.9-1.9,2.3-2l0.3,0V9.4z M10.4,14.4l-0.3,0v-4.2l0.3,0.1c1.7,0.4,2.3,1,2.3,2.1C12.8,13.5,11.8,14.3,10.4,14.4z"/>
		</g>
	</g>
	<rect x="9.7" y="3.9" class="st2" width="0.6" height="12.5"/>
</g>
</svg>
