<?xml version="1.0" encoding="utf-8"?>
<!-- Generator: Adobe Illustrator 25.4.1, SVG Export Plug-In . SVG Version: 6.00 Build 0)  -->
<svg version="1.1" id="Layer_1" xmlns="http://www.w3.org/2000/svg" xmlns:xlink="http://www.w3.org/1999/xlink" x="0px" y="0px"
	 viewBox="0 0 19.8 23.8" style="enable-background:new 0 0 19.8 23.8;" xml:space="preserve">
<style type="text/css">
	.st0{fill:none;stroke:#FFFFFF;stroke-width:0.5;stroke-miterlimit:10;}
</style>
<g>
	<path class="st0" d="M15.5,17.7c2.4-1.7,4-4.6,4-7.8c0,0,0,0,0,0c0-2-0.6-3.9-1.7-5.5c-1.2-1.8-3.1-3.2-5.3-3.8
		c-0.8-0.2-1.6-0.3-2.5-0.4c0,0-0.1,0-0.1,0C9,0.2,8.2,0.4,7.4,0.6c-2.3,0.6-4.3,2.1-5.6,4c-1,1.5-1.6,3.3-1.6,5.3
		c0,5.3,4.3,9.6,9.6,9.6c0.8,0,1.6-0.1,2.4-0.3"/>
	<path class="st0" d="M14.1,16.9c0.4-0.8,0.7-1.7,1-2.6c0.4-1.4,0.5-2.9,0.5-4.4c0-1.4-0.2-2.8-0.6-4.2c-0.5-1.8-1.3-3.6-2.4-5.1"/>
	<line class="st0" x1="10" y1="0.2" x2="10" y2="19.5"/>
	<path class="st0" d="M7.4,0.6c-2,2.7-3,6-3.1,9.3c0,1.4,0.1,2.9,0.5,4.2C5.3,15.9,6,17.6,7,19.1"/>
	<line class="st0" x1="19.5" y1="9.9" x2="0.3" y2="9.9"/>
	<path class="st0" d="M17.8,4.4c-0.9,0.5-1.9,1-2.9,1.3c-1.6,0.5-3.2,0.8-4.9,0.9H9.9c-1.7,0-3.4-0.2-5-0.7C3.8,5.6,2.8,5.1,1.8,4.6
		"/>
	<path class="st0" d="M17.6,15.5c-0.8-0.5-1.7-0.9-2.7-1.2c-1.6-0.6-3.3-0.9-5-0.9H9.9c-1.7,0-3.4,0.2-5.1,0.7
		c-1,0.3-1.9,0.7-2.8,1.2l0,0"/>
	<polygon class="st0" points="17.8,18.9 15.9,20.1 17.4,22.4 15.8,23.4 14.4,21.1 12.4,22.3 12.1,15.9 	"/>
</g>
</svg>
